<?xml version="1.0" encoding="UTF-8"?><svg id="Layer_1" xmlns="http://www.w3.org/2000/svg" width="494" height="161.83" xmlns:xlink="http://www.w3.org/1999/xlink" viewBox="0 0 494 161.83"><defs><style>.cls-1{fill:#5f6368;}.cls-1,.cls-2,.cls-3,.cls-4,.cls-5,.cls-6,.cls-7,.cls-8,.cls-9,.cls-10,.cls-11,.cls-12,.cls-13,.cls-14,.cls-15,.cls-16,.cls-17,.cls-18{stroke-width:0px;}.cls-2{fill:rgba(33,33,33,.05);}.cls-19{clip-path:url(#clippath-2);}.cls-3{fill:#4285f4;}.cls-20{clip-path:url(#clippath-6);}.cls-4{clip-path:url(#clippath-4);}.cls-4,.cls-5,.cls-14,.cls-18{fill:none;}.cls-21{clip-path:url(#clippath-7);}.cls-22{clip-path:url(#clippath-1);}.cls-6{fill:#ffcd40;}.cls-7{fill:#dadce0;}.cls-8{fill:rgba(35,31,32,.1);}.cls-9{fill:#fff;}.cls-10{fill:rgba(33,33,33,.02);}.cls-11{fill:#eee;}.cls-23{clip-path:url(#clippath);}.cls-12{fill:url(#radial-gradient);}.cls-13{fill:#db4437;}.cls-14{clip-path:url(#clippath-5);}.cls-15{fill:#0f9d58;}.cls-16{fill:#f1f1f1;}.cls-17{fill:rgba(255,255,255,.05);}.cls-18{clip-path:url(#clippath-3);}</style><clipPath id="clippath"><path class="cls-5" d="M22.89,26.57v87.67c0,4.13,3.38,7.51,7.51,7.51h95.18c4.13,0,7.51-3.38,7.51-7.51V26.57H22.89ZM90.52,46.61h-25.05c-2.77,0-5.01-2.24-5.01-5.01s2.24-5.01,5.01-5.01h25.05c2.77,0,5.01,2.24,5.01,5.01s-2.24,5.01-5.01,5.01Z"/></clipPath><clipPath id="clippath-1"><path class="cls-5" d="M22.89,26.57v87.67c0,4.13,3.38,7.51,7.51,7.51h95.18c4.13,0,7.51-3.38,7.51-7.51V26.57H22.89ZM90.52,46.61h-25.05c-2.77,0-5.01-2.24-5.01-5.01s2.24-5.01,5.01-5.01h25.05c2.77,0,5.01,2.24,5.01,5.01s-2.24,5.01-5.01,5.01Z"/></clipPath><clipPath id="clippath-2"><path class="cls-5" d="M22.89,26.57v87.67c0,4.13,3.38,7.51,7.51,7.51h95.18c4.13,0,7.51-3.38,7.51-7.51V26.57H22.89ZM90.52,46.61h-25.05c-2.77,0-5.01-2.24-5.01-5.01s2.24-5.01,5.01-5.01h25.05c2.77,0,5.01,2.24,5.01,5.01s-2.24,5.01-5.01,5.01Z"/></clipPath><clipPath id="clippath-3"><circle class="cls-5" cx="78" cy="114.24" r="47.59"/></clipPath><clipPath id="clippath-4"><circle class="cls-18" cx="78" cy="114.24" r="47.59"/></clipPath><clipPath id="clippath-5"><circle class="cls-4" cx="78" cy="114.24" r="47.59"/></clipPath><clipPath id="clippath-6"><circle class="cls-14" cx="78" cy="114.24" r="47.59"/></clipPath><clipPath id="clippath-7"><path class="cls-5" d="M22.89,26.57v87.67c0,4.13,3.38,7.51,7.51,7.51h95.18c4.13,0,7.51-3.38,7.51-7.51V26.57H22.89ZM90.52,46.61h-25.05c-2.77,0-5.01-2.24-5.01-5.01s2.24-5.01,5.01-5.01h25.05c2.77,0,5.01,2.24,5.01,5.01s-2.24,5.01-5.01,5.01Z"/></clipPath><radialGradient id="radial-gradient" cx="90.33" cy="45.35" fx="90.33" fy="45.35" r="570.08" gradientTransform="translate(0 37.5) scale(.25 -.25)" gradientUnits="userSpaceOnUse"><stop offset="0" stop-color="#fff" stop-opacity=".1"/><stop offset="1" stop-color="#fff" stop-opacity="0"/></radialGradient></defs><rect class="cls-9" x=".5" y=".5" width="493" height="147"/><path class="cls-7" d="M493,1v146H1V1h492M494,0H0v148h494V0h0Z"/><path class="cls-1" d="M172.13,105.16c-3.9,0-7.17-1.32-9.8-3.96-2.64-2.64-3.96-5.93-3.96-9.88s1.32-7.24,3.96-9.88c2.64-2.64,5.91-3.96,9.8-3.96s7.24,1.44,9.73,4.33l-2.37,2.29c-1.8-2.24-4.25-3.37-7.36-3.37-2.89,0-5.32.97-7.31,2.92-1.99,1.95-2.98,4.5-2.98,7.66s.99,5.71,2.98,7.66c1.98,1.95,4.42,2.92,7.31,2.92,3.18,0,5.9-1.28,8.14-3.85l2.37,2.37c-1.21,1.46-2.73,2.61-4.55,3.46-1.83.85-3.81,1.28-5.96,1.28Z"/><path class="cls-1" d="M189.08,78.08v8.36l-.15,2.52h.15c.49-.86,1.27-1.6,2.33-2.2,1.06-.6,2.19-.91,3.4-.91,2.24,0,3.96.69,5.14,2.07,1.18,1.38,1.78,3.23,1.78,5.55v11.1h-3.4v-10.58c0-3.35-1.49-5.03-4.48-5.03-1.41,0-2.55.56-3.44,1.68-.89,1.12-1.33,2.42-1.33,3.9v10.03h-3.4v-26.49h3.4Z"/><path class="cls-1" d="M209.13,104.57h-3.4v-18.13h3.26v2.96h.15c.35-.99,1.05-1.8,2.13-2.44,1.07-.64,2.11-.96,3.13-.96s1.86.15,2.55.44l-1.3,3.18c-.44-.17-1.05-.26-1.81-.26-1.23,0-2.33.49-3.27,1.46-.95.97-1.42,2.25-1.42,3.83v9.92Z"/><path class="cls-1" d="M219.64,88.6c1.75-1.84,3.98-2.76,6.7-2.76s4.95.92,6.7,2.76c1.75,1.84,2.63,4.14,2.63,6.9s-.88,5.06-2.63,6.9c-1.75,1.84-3.98,2.76-6.7,2.76s-4.95-.92-6.7-2.76c-1.75-1.84-2.63-4.14-2.63-6.9s.88-5.06,2.63-6.9ZM222.17,100.26c1.17,1.2,2.56,1.79,4.16,1.79s2.99-.6,4.16-1.79c1.17-1.2,1.76-2.78,1.76-4.75s-.59-3.56-1.76-4.75c-1.17-1.2-2.56-1.79-4.16-1.79s-2.99.6-4.16,1.79-1.76,2.78-1.76,4.75.59,3.56,1.76,4.75Z"/><path class="cls-1" d="M238.4,104.57v-18.13h3.26v2.52h.15c.52-.86,1.31-1.6,2.39-2.2,1.07-.6,2.14-.91,3.2-.91,2.81,0,4.72,1.16,5.73,3.48,1.48-2.32,3.59-3.48,6.33-3.48,2.15,0,3.76.68,4.85,2.05,1.09,1.37,1.63,3.23,1.63,5.57v11.1h-3.4v-10.58c0-1.83-.33-3.12-1-3.88s-1.68-1.15-3.03-1.15-2.44.57-3.31,1.7c-.88,1.13-1.31,2.43-1.31,3.88v10.03h-3.4v-10.58c0-1.83-.33-3.12-1-3.88-.67-.76-1.68-1.15-3.03-1.15s-2.44.57-3.31,1.7c-.88,1.13-1.31,2.43-1.31,3.88v10.03h-3.4Z"/><path class="cls-1" d="M278.14,105.16c-2.74,0-4.96-.91-6.68-2.74-1.71-1.82-2.57-4.13-2.57-6.92,0-2.64.83-4.91,2.5-6.81s3.79-2.85,6.38-2.85,4.84.88,6.46,2.63,2.42,4.09,2.42,7.03l-.04.63h-14.32c.1,1.83.71,3.27,1.83,4.33,1.12,1.06,2.44,1.59,3.94,1.59,2.44,0,4.09-1.04,4.96-3.11l3.03,1.26c-.59,1.41-1.57,2.58-2.92,3.53-1.36.95-3.02,1.42-5,1.42ZM283.02,93.32c-.07-1.04-.55-2.02-1.42-2.96-.88-.94-2.18-1.41-3.9-1.41-1.26,0-2.35.4-3.27,1.18s-1.56,1.85-1.91,3.18h10.51Z"/><path class="cls-1" d="M327.87,78.08l-7.07,26.49h-3.48l-5.7-17.46h-.15l-5.7,17.46h-3.48l-7.36-26.49h3.55l5.59,20.83h.15l5.74-17.28h3.18l5.74,17.28h.15l5.29-20.83h3.55Z"/><path class="cls-1" d="M336.71,105.16c-2.74,0-4.96-.91-6.68-2.74-1.71-1.82-2.57-4.13-2.57-6.92,0-2.64.83-4.91,2.5-6.81s3.79-2.85,6.38-2.85,4.84.88,6.46,2.63,2.42,4.09,2.42,7.03l-.04.63h-14.32c.1,1.83.71,3.27,1.83,4.33,1.12,1.06,2.44,1.59,3.94,1.59,2.44,0,4.09-1.04,4.96-3.11l3.03,1.26c-.59,1.41-1.57,2.58-2.92,3.53-1.36.95-3.02,1.42-5,1.42ZM341.59,93.32c-.07-1.04-.55-2.02-1.42-2.96-.88-.94-2.18-1.41-3.9-1.41-1.26,0-2.35.4-3.27,1.18s-1.56,1.85-1.91,3.18h10.51Z"/><path class="cls-1" d="M357.91,105.16c-1.38,0-2.62-.3-3.72-.89s-1.92-1.33-2.46-2.22h-.15v2.52h-3.26v-26.49h3.4v8.36l-.15,2.52h.15c.54-.89,1.36-1.63,2.46-2.22s2.34-.89,3.72-.89c2.34,0,4.37.92,6.07,2.77,1.7,1.85,2.55,4.14,2.55,6.88s-.85,5.03-2.55,6.88c-1.7,1.85-3.72,2.77-6.07,2.77ZM357.35,102.05c1.58,0,2.94-.6,4.07-1.79s1.7-2.78,1.7-4.75-.57-3.56-1.7-4.75-2.49-1.79-4.07-1.79-2.97.59-4.09,1.78c-1.12,1.18-1.68,2.77-1.68,4.77s.56,3.59,1.68,4.77c1.12,1.18,2.48,1.78,4.09,1.78Z"/><path class="cls-1" d="M384.73,105.16c-1.92,0-3.8-.63-5.64-1.89s-3.04-3.02-3.61-5.29l3.11-1.26c.37,1.46,1.13,2.68,2.28,3.68s2.44,1.5,3.87,1.5,2.74-.39,3.79-1.17c1.05-.78,1.57-1.83,1.57-3.16,0-1.48-.52-2.62-1.57-3.42-1.05-.8-2.71-1.55-4.98-2.24-2.34-.74-4.12-1.7-5.33-2.87-1.21-1.17-1.81-2.67-1.81-4.5s.75-3.55,2.26-4.96c1.5-1.41,3.46-2.11,5.88-2.11,2.24,0,4.07.56,5.48,1.68,1.41,1.12,2.32,2.35,2.74,3.68l-3.11,1.29c-.22-.84-.77-1.62-1.65-2.33-.88-.71-2-1.07-3.38-1.07-1.31,0-2.42.36-3.35,1.09s-1.39,1.63-1.39,2.72c0,.99.43,1.82,1.28,2.5.85.68,2.1,1.29,3.76,1.83,1.31.42,2.4.83,3.27,1.22.88.39,1.76.92,2.66,1.57.9.65,1.58,1.47,2.04,2.44.46.97.68,2.1.68,3.38s-.27,2.43-.8,3.44c-.53,1.01-1.23,1.81-2.11,2.41-.88.59-1.82,1.04-2.83,1.35-1.01.31-2.05.46-3.11.46Z"/><path class="cls-1" d="M404.05,104.86c-1.9,0-3.35-.5-4.35-1.52s-1.5-2.44-1.5-4.29v-9.51h-3.18v-3.11h3.18v-5.55h3.4v5.55h4.44v3.11h-4.44v9.25c0,1.97.81,2.96,2.44,2.96.62,0,1.13-.1,1.55-.3l1.18,2.92c-.74.32-1.65.48-2.74.48Z"/><path class="cls-1" d="M410.71,88.6c1.75-1.84,3.98-2.76,6.7-2.76s4.95.92,6.7,2.76c1.75,1.84,2.63,4.14,2.63,6.9s-.88,5.06-2.63,6.9c-1.75,1.84-3.98,2.76-6.7,2.76s-4.95-.92-6.7-2.76c-1.75-1.84-2.63-4.14-2.63-6.9s.88-5.06,2.63-6.9ZM413.24,100.26c1.17,1.2,2.56,1.79,4.16,1.79s2.99-.6,4.16-1.79c1.17-1.2,1.76-2.78,1.76-4.75s-.59-3.56-1.76-4.75c-1.17-1.2-2.56-1.79-4.16-1.79s-2.99.6-4.16,1.79-1.76,2.78-1.76,4.75.58,3.56,1.76,4.75Z"/><path class="cls-1" d="M432.87,104.57h-3.4v-18.13h3.26v2.96h.15c.35-.99,1.05-1.8,2.13-2.44,1.07-.64,2.12-.96,3.13-.96s1.86.15,2.55.44l-1.29,3.18c-.44-.17-1.05-.26-1.81-.26-1.23,0-2.33.49-3.27,1.46-.95.97-1.42,2.25-1.42,3.83v9.92Z"/><path class="cls-1" d="M450,105.16c-2.74,0-4.96-.91-6.68-2.74-1.71-1.82-2.57-4.13-2.57-6.92,0-2.64.83-4.91,2.5-6.81s3.79-2.85,6.38-2.85,4.84.88,6.46,2.63,2.42,4.09,2.42,7.03l-.04.63h-14.32c.1,1.83.71,3.27,1.83,4.33,1.12,1.06,2.44,1.59,3.94,1.59,2.44,0,4.09-1.04,4.96-3.11l3.03,1.26c-.59,1.41-1.57,2.58-2.92,3.53-1.36.95-3.02,1.42-5,1.42ZM454.88,93.32c-.07-1.04-.55-2.02-1.42-2.96-.88-.94-2.18-1.41-3.9-1.41-1.26,0-2.35.4-3.27,1.18s-1.56,1.85-1.91,3.18h10.51Z"/><path class="cls-1" d="M160.34,63.44l7.56-20.05h2.91l7.56,20.05h-2.86l-1.93-5.43h-8.43l-1.96,5.43h-2.86ZM166.02,55.6h6.66l-3.28-9.04h-.11l-3.28,9.04Z"/><path class="cls-1" d="M182.96,63.44l-5.54-13.72h2.8l4.03,10.64h.06l4.09-10.64h2.74l-5.6,13.72h-2.58Z"/><path class="cls-1" d="M196.88,63.89c-1.46,0-2.67-.42-3.65-1.26-.98-.84-1.47-1.95-1.47-3.33,0-1.49.58-2.67,1.74-3.51,1.16-.85,2.58-1.27,4.28-1.27,1.51,0,2.75.28,3.72.84v-.39c0-1.01-.35-1.81-1.04-2.42-.69-.61-1.54-.91-2.55-.91-.75,0-1.42.18-2.03.53-.61.36-1.02.84-1.25,1.46l-2.35-1.01c.32-.82.94-1.58,1.88-2.28.93-.7,2.17-1.05,3.7-1.05,1.75,0,3.21.51,4.37,1.54,1.16,1.03,1.74,2.47,1.74,4.34v8.29h-2.46v-1.9h-.11c-1.03,1.57-2.53,2.35-4.51,2.35ZM197.3,61.53c1.06,0,2.03-.4,2.9-1.19s1.3-1.73,1.3-2.81c-.73-.6-1.82-.9-3.28-.9-1.25,0-2.19.27-2.83.81-.63.54-.95,1.18-.95,1.9,0,.67.29,1.2.87,1.6.58.39,1.24.59,1.99.59Z"/><path class="cls-1" d="M209.67,46.27c-.35.35-.78.53-1.29.53s-.93-.18-1.29-.53c-.35-.35-.53-.78-.53-1.29s.18-.93.53-1.29c.35-.35.78-.53,1.29-.53s.93.18,1.29.53c.35.36.53.78.53,1.29s-.18.93-.53,1.29ZM209.67,63.44h-2.58v-13.72h2.58v13.72Z"/><path class="cls-1" d="M215.61,63.44h-2.58v-20.05h2.58v20.05Z"/><path class="cls-1" d="M222.94,63.89c-1.46,0-2.67-.42-3.65-1.26-.98-.84-1.47-1.95-1.47-3.33,0-1.49.58-2.67,1.74-3.51,1.16-.85,2.58-1.27,4.28-1.27,1.51,0,2.75.28,3.72.84v-.39c0-1.01-.35-1.81-1.04-2.42-.69-.61-1.54-.91-2.55-.91-.75,0-1.42.18-2.03.53-.61.36-1.02.84-1.25,1.46l-2.35-1.01c.32-.82.94-1.58,1.88-2.28.93-.7,2.17-1.05,3.7-1.05,1.75,0,3.21.51,4.37,1.54,1.16,1.03,1.74,2.47,1.74,4.34v8.29h-2.46v-1.9h-.11c-1.03,1.57-2.53,2.35-4.51,2.35ZM223.36,61.53c1.06,0,2.03-.4,2.9-1.19s1.3-1.73,1.3-2.81c-.73-.6-1.82-.9-3.28-.9-1.25,0-2.19.27-2.83.81-.63.54-.95,1.18-.95,1.9,0,.67.29,1.2.87,1.6.58.39,1.24.59,1.99.59Z"/><path class="cls-1" d="M240.19,63.89c-1.05,0-1.98-.22-2.81-.67-.83-.45-1.45-1.01-1.86-1.68h-.11v1.9h-2.46v-20.05h2.58v6.33l-.11,1.9h.11c.41-.67,1.03-1.23,1.86-1.68s1.77-.67,2.81-.67c1.77,0,3.3.7,4.59,2.1,1.29,1.4,1.93,3.14,1.93,5.21s-.64,3.81-1.93,5.21c-1.29,1.4-2.82,2.1-4.59,2.1ZM239.77,61.53c1.19,0,2.22-.45,3.08-1.36.86-.91,1.29-2.1,1.29-3.6s-.43-2.69-1.29-3.6c-.86-.91-1.89-1.36-3.08-1.36s-2.24.45-3.09,1.34c-.85.9-1.27,2.1-1.27,3.61s.42,2.72,1.27,3.61c.85.9,1.88,1.34,3.09,1.34Z"/><path class="cls-1" d="M251.5,63.44h-2.58v-20.05h2.58v20.05Z"/><path class="cls-1" d="M260.72,63.89c-2.07,0-3.76-.69-5.05-2.07-1.3-1.38-1.95-3.13-1.95-5.24,0-2,.63-3.71,1.89-5.15s2.87-2.16,4.83-2.16,3.66.66,4.89,1.99,1.83,3.1,1.83,5.32l-.03.48h-10.84c.07,1.38.54,2.47,1.39,3.28.85.8,1.84,1.2,2.98,1.2,1.85,0,3.1-.78,3.75-2.35l2.3.95c-.45,1.06-1.19,1.96-2.21,2.67-1.03.72-2.29,1.08-3.78,1.08ZM264.41,54.93c-.06-.78-.42-1.53-1.08-2.24-.66-.71-1.65-1.06-2.95-1.06-.95,0-1.78.3-2.48.9s-1.18,1.4-1.44,2.41h7.95Z"/><path class="cls-1" d="M278.47,46.27c-.35.35-.78.53-1.29.53s-.93-.18-1.29-.53-.53-.78-.53-1.29.18-.93.53-1.29c.35-.35.78-.53,1.29-.53s.93.18,1.29.53c.35.36.53.78.53,1.29s-.18.93-.53,1.29ZM278.47,63.44h-2.58v-13.72h2.58v13.72Z"/><path class="cls-1" d="M284.29,49.72v1.9h.11c.37-.65.96-1.21,1.76-1.67.8-.46,1.66-.69,2.58-.69,1.7,0,3,.52,3.89,1.57.9,1.04,1.34,2.45,1.34,4.2v8.4h-2.58v-8.01c0-2.54-1.13-3.81-3.39-3.81-1.06,0-1.93.42-2.6,1.27s-1.01,1.83-1.01,2.95v7.59h-2.58v-13.72h2.46Z"/><path class="cls-1" d="M309.1,63.66c-1.44,0-2.53-.38-3.29-1.15-.76-.77-1.13-1.85-1.13-3.25v-7.2h-2.41v-2.35h2.41v-4.2h2.58v4.2h3.36v2.35h-3.36v7c0,1.49.62,2.24,1.85,2.24.47,0,.86-.07,1.18-.22l.9,2.21c-.56.24-1.25.36-2.07.36Z"/><path class="cls-1" d="M315.79,43.39v6.33l-.11,1.9h.11c.37-.65.96-1.21,1.76-1.67.8-.46,1.66-.69,2.58-.69,1.7,0,3,.52,3.89,1.57.9,1.04,1.34,2.45,1.34,4.2v8.4h-2.58v-8.01c0-2.54-1.13-3.81-3.39-3.81-1.06,0-1.93.42-2.6,1.27s-1.01,1.83-1.01,2.95v7.59h-2.58v-20.05h2.58Z"/><path class="cls-1" d="M334.6,63.89c-2.07,0-3.76-.69-5.05-2.07-1.3-1.38-1.95-3.13-1.95-5.24,0-2,.63-3.71,1.89-5.15s2.87-2.16,4.83-2.16,3.66.66,4.89,1.99,1.83,3.1,1.83,5.32l-.03.48h-10.84c.07,1.38.54,2.47,1.39,3.28.85.8,1.84,1.2,2.98,1.2,1.85,0,3.1-.78,3.75-2.35l2.3.95c-.45,1.06-1.19,1.96-2.21,2.67-1.03.72-2.29,1.08-3.78,1.08ZM338.3,54.93c-.06-.78-.42-1.53-1.08-2.24-.66-.71-1.65-1.06-2.95-1.06-.95,0-1.78.3-2.48.9s-1.18,1.4-1.44,2.41h7.95Z"/><g class="cls-23"><path class="cls-11" d="M22.89,26.57h110.21v95.18H22.89V26.57Z"/></g><g class="cls-22"><path class="cls-9" d="M90.52,36.59h-25.05c-2.77,0-5.01,2.24-5.01,5.01s2.24,5.01,5.01,5.01h25.05c2.77,0,5.01-2.24,5.01-5.01s-2.24-5.01-5.01-5.01Z"/></g><g class="cls-19"><g class="cls-20"><path class="cls-13" d="M37.97,66.65v58.41h21.3l18.74-32.45h47.59v-25.96H37.97ZM37.97,66.65v58.41h21.3l18.74-32.45h47.59v-25.96H37.97Z"/><path class="cls-15" d="M30.41,161.83h45.3l21.03-21.03v-15.74h-37.47s-28.86-49.49-28.86-49.49v86.26ZM30.41,161.83h45.3l21.03-21.03v-15.74h-37.47s-28.86-49.49-28.86-49.49v86.26Z"/><path class="cls-6" d="M78,92.6l18.74,32.45-21.02,36.78h49.88v-69.23h-47.59ZM78,92.6l18.74,32.45-21.02,36.78h49.88v-69.23h-47.59Z"/><circle class="cls-16" cx="78" cy="114.24" r="21.64"/><circle class="cls-3" cx="78" cy="114.24" r="17.31"/></g><g class="cls-21"><path class="cls-2" d="M22.89,26.57h110.21v47.59H22.89V26.57Z"/></g><path class="cls-10" d="M22.89,73.54h110.21v.63H22.89v-.63Z"/><path class="cls-17" d="M22.89,74.16h110.21v.63H22.89v-.63Z"/><path class="cls-10" d="M90.52,46.61h-25.05c-2.66,0-4.83-2.08-4.99-4.7-.01.11-.02.21-.02.31,0,2.77,2.24,5.01,5.01,5.01h25.05c2.77,0,5.01-2.24,5.01-5.01,0-.11,0-.21-.02-.31-.16,2.62-2.33,4.7-4.99,4.7ZM22.89,26.57v.63h110.21v-.63H22.89Z"/><path class="cls-8" d="M65.48,36.59h25.05c2.66,0,4.83,2.08,4.99,4.7,0-.11.02-.21.02-.31,0-2.77-2.24-5.01-5.01-5.01h-25.05c-2.77,0-5.01,2.24-5.01,5.01,0,.11,0,.21.02.31.16-2.62,2.33-4.7,4.99-4.7ZM125.59,121.13H30.41c-4.13,0-7.51-3.38-7.51-7.51v.63c0,4.13,3.38,7.51,7.51,7.51h95.18c4.13,0,7.51-3.38,7.51-7.51v-.63c0,4.13-3.38,7.51-7.51,7.51Z"/><path class="cls-12" d="M22.89,26.57v87.67c0,4.13,3.38,7.51,7.51,7.51h95.18c4.13,0,7.51-3.38,7.51-7.51V26.57H22.89ZM90.52,46.61h-25.05c-2.77,0-5.01-2.24-5.01-5.01s2.24-5.01,5.01-5.01h25.05c2.77,0,5.01,2.24,5.01,5.01s-2.24,5.01-5.01,5.01Z"/><path class="cls-5" d="M17.89,14.05h120.23v120.23H17.89V14.05Z"/></g></svg>